<svg width="208" height="208" viewBox="0 0 208 208" fill="transparent" xmlns="http://www.w3.org/2000/svg">
<rect width="208" height="208" fill="#1E1E1E"/>
<g filter="url(#filter0_d_0_1)">
<circle cx="104" cy="100" r="100" fill="#2E3138"/>
<circle cx="104" cy="100" r="99.5" stroke="#55868C"/>
</g>
<circle cx="103.5" cy="99.5" r="85" fill="#2E3138" stroke="#55868C"/>
<circle cx="104" cy="100" r="70.5" fill="#2E3138" stroke="#55868C"/>
<circle cx="103.5" cy="99.5" r="57" fill="#2E3138" stroke="#55868C"/>
<circle cx="102" cy="100" r="42.5" fill="#2E3138" stroke="#55868C"/>
<circle cx="101.5" cy="102.5" r="28" fill="#E4DFDA" stroke="#55868C"/>
<g filter="url(#filter1_d_0_1)">
<rect x="33" y="67" width="142" height="64" fill="#BB7743"/>
<rect x="32.5" y="66.5" width="143" height="65" stroke="#55868C"/>
</g>
<path d="M46.2636 111V106.04H49.9116V93.56H46.2636V88.6H59.7356V93.56H56.0556V106.04H59.7356V111H46.2636ZM79.0331 111.384C77.7105 111.384 76.4731 111.107 75.3211 110.552C74.1905 109.997 73.2731 109.187 72.5691 108.12C71.8865 107.053 71.5451 105.784 71.5451 104.312V95.096C71.5451 94.776 71.4705 94.4987 71.3211 94.264C71.1931 94.008 71.0118 93.816 70.7771 93.688C70.5425 93.56 70.2758 93.496 69.9771 93.496C69.6785 93.496 69.4118 93.56 69.1771 93.688C68.9425 93.816 68.7505 94.008 68.6011 94.264C68.4518 94.4987 68.3771 94.776 68.3771 95.096V111H62.4571V95.32C62.4571 93.8693 62.7985 92.6107 63.4811 91.544C64.1638 90.4773 65.0705 89.656 66.2011 89.08C67.3531 88.4827 68.6118 88.184 69.9771 88.184C71.3425 88.184 72.5905 88.4827 73.7211 89.08C74.8518 89.656 75.7585 90.4773 76.4411 91.544C77.1238 92.6107 77.4651 93.8693 77.4651 95.32V104.536C77.4651 104.835 77.5398 105.112 77.6891 105.368C77.8385 105.603 78.0305 105.795 78.2651 105.944C78.4998 106.072 78.7558 106.136 79.0331 106.136C79.3105 106.136 79.5665 106.072 79.8011 105.944C80.0571 105.795 80.2598 105.603 80.4091 105.368C80.5585 105.112 80.6331 104.835 80.6331 104.536V95.32C80.6331 93.8693 80.9745 92.6107 81.6571 91.544C82.3398 90.4773 83.2465 89.656 84.3771 89.08C85.5291 88.4827 86.7878 88.184 88.1531 88.184C89.4971 88.184 90.7345 88.4827 91.8651 89.08C92.9958 89.656 93.9025 90.4773 94.5851 91.544C95.2678 92.6107 95.6091 93.8693 95.6091 95.32V111H89.7211V95.032C89.7211 94.7333 89.6465 94.4667 89.4971 94.232C89.3478 93.9973 89.1558 93.816 88.9211 93.688C88.6865 93.56 88.4305 93.496 88.1531 93.496C87.8545 93.496 87.5771 93.56 87.3211 93.688C87.0865 93.816 86.8945 93.9973 86.7451 94.232C86.6171 94.4667 86.5531 94.7333 86.5531 95.032V104.312C86.5531 105.784 86.2011 107.053 85.4971 108.12C84.7931 109.187 83.8758 109.997 82.7451 110.552C81.6145 111.107 80.3771 111.384 79.0331 111.384ZM107.157 111.416C105.451 111.416 103.957 111.085 102.677 110.424C101.419 109.763 100.437 108.877 99.7334 107.768C99.0507 106.659 98.7094 105.4 98.7094 103.992V94.52H104.245V103.736C104.245 104.205 104.363 104.653 104.597 105.08C104.832 105.507 105.163 105.848 105.589 106.104C106.037 106.36 106.528 106.488 107.061 106.488C107.616 106.488 108.096 106.36 108.501 106.104C108.928 105.848 109.259 105.507 109.493 105.08C109.728 104.653 109.845 104.205 109.845 103.736V94.52H115.413V103.992C115.413 105.4 115.083 106.659 114.421 107.768C113.76 108.877 112.811 109.763 111.573 110.424C110.336 111.085 108.864 111.416 107.157 111.416ZM118.68 111V88.6H127.512C129.88 88.6 131.928 89.08 133.656 90.04C135.406 91 136.75 92.3227 137.688 94.008C138.648 95.6933 139.128 97.624 139.128 99.8C139.128 101.976 138.648 103.907 137.688 105.592C136.75 107.277 135.406 108.6 133.656 109.56C131.928 110.52 129.88 111 127.512 111H118.68ZM124.792 106.04H127.256C128.366 106.04 129.347 105.795 130.2 105.304C131.054 104.813 131.726 104.099 132.216 103.16C132.707 102.2 132.952 101.08 132.952 99.8C132.952 98.4987 132.707 97.3893 132.216 96.472C131.726 95.5333 131.054 94.8187 130.2 94.328C129.347 93.816 128.366 93.56 127.256 93.56H124.792V106.04ZM141.712 111V88.6H155.056C156.229 88.6 157.285 88.856 158.224 89.368C159.184 89.8587 159.952 90.552 160.528 91.448C161.104 92.344 161.392 93.4 161.392 94.616C161.392 95.2773 161.264 95.9173 161.008 96.536C160.752 97.1333 160.41 97.6773 159.984 98.168C159.557 98.6373 159.045 99.0427 158.448 99.384C159.152 99.704 159.76 100.141 160.272 100.696C160.805 101.251 161.21 101.88 161.488 102.584C161.786 103.288 161.936 104.035 161.936 104.824C161.936 106.061 161.637 107.149 161.04 108.088C160.464 109.005 159.685 109.72 158.704 110.232C157.722 110.744 156.634 111 155.44 111H141.712ZM147.824 106.168H153.968C154.373 106.168 154.714 106.083 154.992 105.912C155.29 105.72 155.525 105.464 155.696 105.144C155.866 104.824 155.952 104.472 155.952 104.088C155.952 103.704 155.866 103.363 155.696 103.064C155.525 102.765 155.29 102.531 154.992 102.36C154.714 102.168 154.373 102.072 153.968 102.072H147.824V106.168ZM147.824 97.4H153.296C153.658 97.4 153.978 97.3147 154.256 97.144C154.554 96.952 154.778 96.7067 154.928 96.408C155.098 96.1093 155.184 95.7893 155.184 95.448C155.184 95.1067 155.098 94.7973 154.928 94.52C154.778 94.2213 154.565 93.9867 154.288 93.816C154.01 93.6453 153.68 93.56 153.296 93.56H147.824V97.4Z" fill="#E4DFDA"/>
<g filter="url(#filter2_d_0_1)">
<line x1="158.582" y1="85.3638" x2="173.582" y2="28.3638" stroke="#BB7743" stroke-width="5"/>
</g>
<defs>
<filter id="filter0_d_0_1" x="0" y="0" width="208" height="208" filterUnits="userSpaceOnUse" color-interpolation-filters="sRGB">
<feFlood flood-opacity="0" result="BackgroundImageFix"/>
<feColorMatrix in="SourceAlpha" type="matrix" values="0 0 0 0 0 0 0 0 0 0 0 0 0 0 0 0 0 0 127 0" result="hardAlpha"/>
<feOffset dy="4"/>
<feGaussianBlur stdDeviation="2"/>
<feComposite in2="hardAlpha" operator="out"/>
<feColorMatrix type="matrix" values="0 0 0 0 0 0 0 0 0 0 0 0 0 0 0 0 0 0 0.25 0"/>
<feBlend mode="normal" in2="BackgroundImageFix" result="effect1_dropShadow_0_1"/>
<feBlend mode="normal" in="SourceGraphic" in2="effect1_dropShadow_0_1" result="shape"/>
</filter>
<filter id="filter1_d_0_1" x="23" y="61" width="162" height="84" filterUnits="userSpaceOnUse" color-interpolation-filters="sRGB">
<feFlood flood-opacity="0" result="BackgroundImageFix"/>
<feColorMatrix in="SourceAlpha" type="matrix" values="0 0 0 0 0 0 0 0 0 0 0 0 0 0 0 0 0 0 127 0" result="hardAlpha"/>
<feMorphology radius="5" operator="dilate" in="SourceAlpha" result="effect1_dropShadow_0_1"/>
<feOffset dy="4"/>
<feGaussianBlur stdDeviation="2"/>
<feComposite in2="hardAlpha" operator="out"/>
<feColorMatrix type="matrix" values="0 0 0 0 0 0 0 0 0 0 0 0 0 0 0 0 0 0 0.25 0"/>
<feBlend mode="normal" in2="BackgroundImageFix" result="effect1_dropShadow_0_1"/>
<feBlend mode="normal" in="SourceGraphic" in2="effect1_dropShadow_0_1" result="shape"/>
</filter>
<filter id="filter2_d_0_1" x="152.165" y="27.7275" width="27.8354" height="66.2725" filterUnits="userSpaceOnUse" color-interpolation-filters="sRGB">
<feFlood flood-opacity="0" result="BackgroundImageFix"/>
<feColorMatrix in="SourceAlpha" type="matrix" values="0 0 0 0 0 0 0 0 0 0 0 0 0 0 0 0 0 0 127 0" result="hardAlpha"/>
<feOffset dy="4"/>
<feGaussianBlur stdDeviation="2"/>
<feComposite in2="hardAlpha" operator="out"/>
<feColorMatrix type="matrix" values="0 0 0 0 0 0 0 0 0 0 0 0 0 0 0 0 0 0 0.25 0"/>
<feBlend mode="normal" in2="BackgroundImageFix" result="effect1_dropShadow_0_1"/>
<feBlend mode="normal" in="SourceGraphic" in2="effect1_dropShadow_0_1" result="shape"/>
</filter>
</defs>
</svg>
