<svg width="200" height="200" viewBox="0 0 200 200" fill="none" xmlns="http://www.w3.org/2000/svg">
<circle cx="100" cy="100" r="99.5" fill="#2E3138" stroke="#55868C"/>
<circle cx="99.5" cy="99.5" r="85" fill="#2E3138" stroke="#55868C"/>
<circle cx="100" cy="100" r="70.5" fill="#2E3138" stroke="#55868C"/>
<circle cx="99.5" cy="99.5" r="57" fill="#2E3138" stroke="#55868C"/>
<circle cx="98" cy="100" r="42.5" fill="#2E3138" stroke="#55868C"/>
<circle cx="97.5" cy="102.5" r="28" fill="#E4DFDA" stroke="#55868C"/>
<g filter="url(#filter0_d_3_8)">
<path d="M29 75C29 70.5817 32.5817 67 37 67H163C167.418 67 171 70.5817 171 75V123C171 127.418 167.418 131 163 131H37C32.5817 131 29 127.418 29 123V75Z" fill="#BB7743"/>
<path d="M163 66.5H37C32.3056 66.5 28.5 70.3056 28.5 75V123C28.5 127.694 32.3056 131.5 37 131.5H163C167.694 131.5 171.5 127.694 171.5 123V75C171.5 70.3056 167.694 66.5 163 66.5Z" stroke="#55868C"/>
</g>
<path d="M42.2636 111V106.04H45.9116V93.56H42.2636V88.6H55.7356V93.56H52.0556V106.04H55.7356V111H42.2636ZM75.0331 111.384C73.7105 111.384 72.4731 111.107 71.3211 110.552C70.1905 109.997 69.2731 109.187 68.5691 108.12C67.8865 107.053 67.5451 105.784 67.5451 104.312V95.096C67.5451 94.776 67.4705 94.4987 67.3211 94.264C67.1931 94.008 67.0118 93.816 66.7771 93.688C66.5425 93.56 66.2758 93.496 65.9771 93.496C65.6785 93.496 65.4118 93.56 65.1771 93.688C64.9425 93.816 64.7505 94.008 64.6011 94.264C64.4518 94.4987 64.3771 94.776 64.3771 95.096V111H58.4571V95.32C58.4571 93.8693 58.7985 92.6107 59.4811 91.544C60.1638 90.4773 61.0705 89.656 62.2011 89.08C63.3531 88.4827 64.6118 88.184 65.9771 88.184C67.3425 88.184 68.5905 88.4827 69.7211 89.08C70.8518 89.656 71.7585 90.4773 72.4411 91.544C73.1238 92.6107 73.4651 93.8693 73.4651 95.32V104.536C73.4651 104.835 73.5398 105.112 73.6891 105.368C73.8385 105.603 74.0305 105.795 74.2651 105.944C74.4998 106.072 74.7558 106.136 75.0331 106.136C75.3105 106.136 75.5665 106.072 75.8011 105.944C76.0571 105.795 76.2598 105.603 76.4091 105.368C76.5585 105.112 76.6331 104.835 76.6331 104.536V95.32C76.6331 93.8693 76.9745 92.6107 77.6571 91.544C78.3398 90.4773 79.2465 89.656 80.3771 89.08C81.5291 88.4827 82.7878 88.184 84.1531 88.184C85.4971 88.184 86.7345 88.4827 87.8651 89.08C88.9958 89.656 89.9025 90.4773 90.5851 91.544C91.2678 92.6107 91.6091 93.8693 91.6091 95.32V111H85.7211V95.032C85.7211 94.7333 85.6465 94.4667 85.4971 94.232C85.3478 93.9973 85.1558 93.816 84.9211 93.688C84.6865 93.56 84.4305 93.496 84.1531 93.496C83.8545 93.496 83.5771 93.56 83.3211 93.688C83.0865 93.816 82.8945 93.9973 82.7451 94.232C82.6171 94.4667 82.5531 94.7333 82.5531 95.032V104.312C82.5531 105.784 82.2011 107.053 81.4971 108.12C80.7931 109.187 79.8758 109.997 78.7451 110.552C77.6145 111.107 76.3771 111.384 75.0331 111.384ZM103.157 111.416C101.451 111.416 99.9574 111.085 98.6774 110.424C97.4187 109.763 96.4374 108.877 95.7334 107.768C95.0507 106.659 94.7094 105.4 94.7094 103.992V94.52H100.245V103.736C100.245 104.205 100.363 104.653 100.597 105.08C100.832 105.507 101.163 105.848 101.589 106.104C102.037 106.36 102.528 106.488 103.061 106.488C103.616 106.488 104.096 106.36 104.501 106.104C104.928 105.848 105.259 105.507 105.493 105.08C105.728 104.653 105.845 104.205 105.845 103.736V94.52H111.413V103.992C111.413 105.4 111.083 106.659 110.421 107.768C109.76 108.877 108.811 109.763 107.573 110.424C106.336 111.085 104.864 111.416 103.157 111.416ZM114.68 111V88.6H123.512C125.88 88.6 127.928 89.08 129.656 90.04C131.406 91 132.75 92.3227 133.688 94.008C134.648 95.6933 135.128 97.624 135.128 99.8C135.128 101.976 134.648 103.907 133.688 105.592C132.75 107.277 131.406 108.6 129.656 109.56C127.928 110.52 125.88 111 123.512 111H114.68ZM120.792 106.04H123.256C124.366 106.04 125.347 105.795 126.2 105.304C127.054 104.813 127.726 104.099 128.216 103.16C128.707 102.2 128.952 101.08 128.952 99.8C128.952 98.4987 128.707 97.3893 128.216 96.472C127.726 95.5333 127.054 94.8187 126.2 94.328C125.347 93.816 124.366 93.56 123.256 93.56H120.792V106.04ZM137.712 111V88.6H151.056C152.229 88.6 153.285 88.856 154.224 89.368C155.184 89.8587 155.952 90.552 156.528 91.448C157.104 92.344 157.392 93.4 157.392 94.616C157.392 95.2773 157.264 95.9173 157.008 96.536C156.752 97.1333 156.41 97.6773 155.984 98.168C155.557 98.6373 155.045 99.0427 154.448 99.384C155.152 99.704 155.76 100.141 156.272 100.696C156.805 101.251 157.21 101.88 157.488 102.584C157.786 103.288 157.936 104.035 157.936 104.824C157.936 106.061 157.637 107.149 157.04 108.088C156.464 109.005 155.685 109.72 154.704 110.232C153.722 110.744 152.634 111 151.44 111H137.712ZM143.824 106.168H149.968C150.373 106.168 150.714 106.083 150.992 105.912C151.29 105.72 151.525 105.464 151.696 105.144C151.866 104.824 151.952 104.472 151.952 104.088C151.952 103.704 151.866 103.363 151.696 103.064C151.525 102.765 151.29 102.531 150.992 102.36C150.714 102.168 150.373 102.072 149.968 102.072H143.824V106.168ZM143.824 97.4H149.296C149.658 97.4 149.978 97.3147 150.256 97.144C150.554 96.952 150.778 96.7067 150.928 96.408C151.098 96.1093 151.184 95.7893 151.184 95.448C151.184 95.1067 151.098 94.7973 150.928 94.52C150.778 94.2213 150.565 93.9867 150.288 93.816C150.01 93.6453 149.68 93.56 149.296 93.56H143.824V97.4Z" fill="#E4DFDA"/>
<g filter="url(#filter1_d_3_8)">
<line x1="154.582" y1="85.3638" x2="169.582" y2="28.3638" stroke="#BB7743" stroke-width="5"/>
</g>
<defs>
<filter id="filter0_d_3_8" x="19" y="61" width="162" height="84" filterUnits="userSpaceOnUse" color-interpolation-filters="sRGB">
<feFlood flood-opacity="0" result="BackgroundImageFix"/>
<feColorMatrix in="SourceAlpha" type="matrix" values="0 0 0 0 0 0 0 0 0 0 0 0 0 0 0 0 0 0 127 0" result="hardAlpha"/>
<feMorphology radius="5" operator="dilate" in="SourceAlpha" result="effect1_dropShadow_3_8"/>
<feOffset dy="4"/>
<feGaussianBlur stdDeviation="2"/>
<feComposite in2="hardAlpha" operator="out"/>
<feColorMatrix type="matrix" values="0 0 0 0 0 0 0 0 0 0 0 0 0 0 0 0 0 0 0.25 0"/>
<feBlend mode="normal" in2="BackgroundImageFix" result="effect1_dropShadow_3_8"/>
<feBlend mode="normal" in="SourceGraphic" in2="effect1_dropShadow_3_8" result="shape"/>
</filter>
<filter id="filter1_d_3_8" x="148.165" y="27.7275" width="27.8354" height="66.2725" filterUnits="userSpaceOnUse" color-interpolation-filters="sRGB">
<feFlood flood-opacity="0" result="BackgroundImageFix"/>
<feColorMatrix in="SourceAlpha" type="matrix" values="0 0 0 0 0 0 0 0 0 0 0 0 0 0 0 0 0 0 127 0" result="hardAlpha"/>
<feOffset dy="4"/>
<feGaussianBlur stdDeviation="2"/>
<feComposite in2="hardAlpha" operator="out"/>
<feColorMatrix type="matrix" values="0 0 0 0 0 0 0 0 0 0 0 0 0 0 0 0 0 0 0.25 0"/>
<feBlend mode="normal" in2="BackgroundImageFix" result="effect1_dropShadow_3_8"/>
<feBlend mode="normal" in="SourceGraphic" in2="effect1_dropShadow_3_8" result="shape"/>
</filter>
</defs>
</svg>
