<svg width="308" height="148" viewBox="0 0 308 148" fill="none" xmlns="http://www.w3.org/2000/svg">
<rect width="308" height="148" fill="#F5F5F5"/>
<g filter="url(#filter0_d_0_1)">
<path d="M4 128C4 134.627 9.37258 140 16 140H292C298.627 140 304 134.627 304 128V12C304 5.37258 298.627 0 292 0H16C9.37259 0 4 5.37258 4 12V128Z" fill="#2660A4"/>
</g>
<path d="M33.5737 92V83.04H41.3177V56.16H33.5737V47.2H59.7498V56.16H52.0057V83.04H59.7498V92H33.5737ZM101.287 92.768C98.6846 92.768 96.2953 92.192 94.1193 91.04C91.9859 89.888 90.2793 88.288 88.9993 86.24C87.7619 84.192 87.1432 81.76 87.1432 78.944V59.424C87.1432 58.7413 86.9726 58.1227 86.6313 57.568C86.2899 57.0133 85.8419 56.5653 85.2873 56.224C84.7326 55.8827 84.1139 55.712 83.4312 55.712C82.7486 55.712 82.1299 55.8827 81.5752 56.224C81.0206 56.5653 80.5726 57.0133 80.2312 57.568C79.9326 58.1227 79.7832 58.7413 79.7832 59.424V92H69.2872V60.192C69.2872 57.504 69.8846 55.136 71.0792 53.088C72.3166 51.04 74.0019 49.4187 76.1353 48.224C78.3113 47.0293 80.7432 46.432 83.4312 46.432C86.1619 46.432 88.5939 47.0293 90.7273 48.224C92.8606 49.4187 94.5459 51.04 95.7833 53.088C97.0206 55.136 97.6392 57.504 97.6392 60.192V79.712C97.6392 80.4373 97.8099 81.0773 98.1512 81.632C98.4926 82.1867 98.9193 82.6347 99.4313 82.976C99.9859 83.2747 100.583 83.424 101.223 83.424C101.906 83.424 102.525 83.2747 103.079 82.976C103.677 82.6347 104.146 82.1867 104.487 81.632C104.829 81.0773 104.999 80.4373 104.999 79.712V60.192C104.999 57.504 105.618 55.136 106.855 53.088C108.093 51.04 109.778 49.4187 111.911 48.224C114.087 47.0293 116.498 46.432 119.143 46.432C121.874 46.432 124.285 47.0293 126.375 48.224C128.509 49.4187 130.194 51.04 131.431 53.088C132.669 55.136 133.287 57.504 133.287 60.192V92H122.791V59.36C122.791 58.6773 122.621 58.08 122.279 57.568C121.981 57.0133 121.554 56.5653 120.999 56.224C120.445 55.8827 119.826 55.712 119.143 55.712C118.503 55.712 117.885 55.8827 117.287 56.224C116.733 56.5653 116.285 57.0133 115.943 57.568C115.602 58.08 115.431 58.6773 115.431 59.36V78.944C115.431 81.76 114.791 84.192 113.511 86.24C112.231 88.288 110.525 89.888 108.391 91.04C106.258 92.192 103.89 92.768 101.287 92.768ZM160.065 92.768C156.694 92.768 153.771 92.128 151.297 90.848C148.865 89.5253 146.987 87.7547 145.665 85.536C144.342 83.2747 143.681 80.7787 143.681 78.048V59.168H153.601V77.792C153.601 78.944 153.878 80.0107 154.433 80.992C154.987 81.9307 155.734 82.6987 156.673 83.296C157.654 83.8507 158.763 84.128 160.001 84.128C161.195 84.128 162.262 83.8507 163.201 83.296C164.182 82.6987 164.95 81.9307 165.505 80.992C166.059 80.0107 166.337 78.944 166.337 77.792V59.168H176.257V78.048C176.257 80.7787 175.617 83.2747 174.337 85.536C173.057 87.7547 171.201 89.5253 168.769 90.848C166.379 92.128 163.478 92.768 160.065 92.768ZM187.073 92V47.2H203.521C208.257 47.2 212.353 48.16 215.809 50.08C219.307 52 222.017 54.6453 223.937 58.016C225.899 61.3867 226.881 65.248 226.881 69.6C226.881 73.952 225.899 77.8133 223.937 81.184C222.017 84.5547 219.307 87.2 215.809 89.12C212.353 91.04 208.257 92 203.521 92H187.073ZM197.825 83.04H203.265C205.739 83.04 207.937 82.5067 209.857 81.44C211.819 80.3307 213.355 78.7733 214.465 76.768C215.574 74.7627 216.129 72.3733 216.129 69.6C216.129 66.8267 215.574 64.4373 214.465 62.432C213.355 60.4267 211.819 58.8907 209.857 57.824C207.937 56.7147 205.739 56.16 203.265 56.16H197.825V83.04ZM235.773 92V47.2H261.757C263.975 47.2 265.981 47.6907 267.773 48.672C269.607 49.6533 271.058 51.0187 272.125 52.768C273.234 54.5173 273.789 56.5867 273.789 58.976C273.789 60.384 273.511 61.728 272.957 63.008C272.445 64.288 271.698 65.4187 270.717 66.4C269.778 67.3813 268.69 68.1707 267.453 68.768C268.903 69.3653 270.183 70.2187 271.293 71.328C272.445 72.4373 273.341 73.7173 273.981 75.168C274.663 76.6187 275.005 78.176 275.005 79.84C275.005 82.272 274.429 84.4053 273.277 86.24C272.167 88.0747 270.674 89.504 268.797 90.528C266.919 91.5093 264.829 92 262.525 92H235.773ZM246.525 83.104H259.709C260.605 83.104 261.394 82.8907 262.077 82.464C262.802 82.0373 263.378 81.4613 263.805 80.736C264.231 80.0107 264.445 79.2213 264.445 78.368C264.445 77.472 264.231 76.6827 263.805 76C263.378 75.2747 262.802 74.6987 262.077 74.272C261.394 73.8453 260.605 73.632 259.709 73.632H246.525V83.104ZM246.525 65.056H258.621C259.474 65.056 260.221 64.864 260.861 64.48C261.543 64.0533 262.077 63.52 262.461 62.88C262.845 62.1973 263.037 61.4507 263.037 60.64C263.037 59.7867 262.845 59.04 262.461 58.4C262.077 57.7173 261.543 57.184 260.861 56.8C260.221 56.3733 259.474 56.16 258.621 56.16H246.525V65.056Z" fill="#F3F8F2"/>
<defs>
<filter id="filter0_d_0_1" x="0" y="0" width="308" height="148" filterUnits="userSpaceOnUse" color-interpolation-filters="sRGB">
<feFlood flood-opacity="0" result="BackgroundImageFix"/>
<feColorMatrix in="SourceAlpha" type="matrix" values="0 0 0 0 0 0 0 0 0 0 0 0 0 0 0 0 0 0 127 0" result="hardAlpha"/>
<feOffset dy="4"/>
<feGaussianBlur stdDeviation="2"/>
<feComposite in2="hardAlpha" operator="out"/>
<feColorMatrix type="matrix" values="0 0 0 0 0 0 0 0 0 0 0 0 0 0 0 0 0 0 0.25 0"/>
<feBlend mode="normal" in2="BackgroundImageFix" result="effect1_dropShadow_0_1"/>
<feBlend mode="normal" in="SourceGraphic" in2="effect1_dropShadow_0_1" result="shape"/>
</filter>
</defs>
</svg>
